<svg width="800" height="300" viewBox="0 0 800 300" xmlns="http://www.w3.org/2000/svg">
  <rect width="800" height="300" fill="#e8f5e9"/>
  <!-- Grid lines -->
  <line x1="0" y1="75"  x2="800" y2="75"  stroke="#c8e6c9" stroke-width="1"/>
  <line x1="0" y1="150" x2="800" y2="150" stroke="#c8e6c9" stroke-width="1"/>
  <line x1="0" y1="225" x2="800" y2="225" stroke="#c8e6c9" stroke-width="1"/>
  <line x1="200" y1="0" x2="200" y2="300" stroke="#c8e6c9" stroke-width="1"/>
  <line x1="400" y1="0" x2="400" y2="300" stroke="#c8e6c9" stroke-width="1"/>
  <line x1="600" y1="0" x2="600" y2="300" stroke="#c8e6c9" stroke-width="1"/>
  <!-- Land cover patches -->
  <ellipse cx="180" cy="120" rx="90" ry="65" fill="#66bb6a" opacity="0.75"/>
  <ellipse cx="430" cy="200" rx="130" ry="70" fill="#26a69a" opacity="0.75"/>
  <ellipse cx="640" cy="100" rx="70" ry="90" fill="#ffa726" opacity="0.75"/>
  <ellipse cx="310" cy="70"  rx="60" ry="40" fill="#42a5f5" opacity="0.75"/>
  <ellipse cx="570" cy="220" rx="80" ry="45" fill="#8d6e63" opacity="0.60"/>
  <!-- Legend -->
  <rect x="620" y="10" width="170" height="115" fill="white" opacity="0.85" rx="4"/>
  <rect x="630" y="22" width="12" height="12" fill="#66bb6a"/>
  <text x="648" y="33" font-family="Arial,sans-serif" font-size="11" fill="#333">Vegetation</text>
  <rect x="630" y="40" width="12" height="12" fill="#26a69a"/>
  <text x="648" y="51" font-family="Arial,sans-serif" font-size="11" fill="#333">Urban</text>
  <rect x="630" y="58" width="12" height="12" fill="#ffa726"/>
  <text x="648" y="69" font-family="Arial,sans-serif" font-size="11" fill="#333">Bare Soil</text>
  <rect x="630" y="76" width="12" height="12" fill="#42a5f5"/>
  <text x="648" y="87" font-family="Arial,sans-serif" font-size="11" fill="#333">Water</text>
  <rect x="630" y="94" width="12" height="12" fill="#8d6e63"/>
  <text x="648" y="105" font-family="Arial,sans-serif" font-size="11" fill="#333">Cropland</text>
  <!-- Title -->
  <text x="400" y="285" font-family="Arial,sans-serif" font-size="12" fill="#757575" text-anchor="middle">Replace with your project image</text>
</svg>
